<?xml version="1.0" encoding="utf-8"?>
<!-- Generator: Adobe Illustrator 27.1.1, SVG Export Plug-In . SVG Version: 6.00 Build 0)  -->
<svg version="1.1" id="Layer_1" xmlns="http://www.w3.org/2000/svg" xmlns:xlink="http://www.w3.org/1999/xlink" x="0px" y="0px"
	 viewBox="0 0 235 235" style="enable-background:new 0 0 235 235;" xml:space="preserve">
<style type="text/css">
	.st0{display:none;}
	.st1{display:inline;fill:#EB2127;}
	.st2{display:inline;fill:#3A4FA1;}
	.st3{display:inline;fill:#5DB847;}
	.st4{fill:#FCEC10;}
	.st5{fill:#F7E000;}
	.st6{fill:#EA1F27;}
	.st7{fill:#4263AD;}
	.st8{fill:#40B449;}
</style>
<g id="Layer_4" class="st0">
	<rect x="99.4" y="6.4" class="st1" width="35.7" height="157.6"/>
	<rect x="152" y="93.5" transform="matrix(0.5 -0.866 0.866 0.5 -64.255 233.2049)" class="st2" width="35.7" height="157.6"/>
	<rect x="-11.6" y="154.4" transform="matrix(0.866 -0.5 0.5 0.866 -77.1151 56.6623)" class="st3" width="157.6" height="35.7"/>
</g>
<g id="Layer_1_00000041987412152500879120000010187453128844658579_">
	<circle class="st4" cx="117.3" cy="141.1" r="37.5"/>
</g>
<g>
	<circle class="st5" cx="117.5" cy="140.4" r="40"/>
	<path class="st6" d="M3.4,189.8c-4.2,2.4-4.4,9.9-0.5,16.8c3.9,6.8,10.6,10.4,14.8,8l80.9-46.7c4.2-2.4,4.4-9.9,0.5-16.8
		c-3.9-6.8-10.6-10.4-14.8-8l0,0L3.4,189.8L3.4,189.8z"/>
	<path class="st7" d="M131.8,16.8c0-4.9-6.4-8.8-14.3-8.8s-14.3,3.9-14.3,8.8v93.4c0,4.9,6.4,8.8,14.3,8.8s14.3-3.9,14.3-8.8h0
		L131.8,16.8L131.8,16.8z"/>
	<path class="st8" d="M217.4,214.5c4.2,2.4,10.8-1.1,14.8-8c3.9-6.8,3.7-14.3-0.5-16.8l-80.9-46.7c-4.2-2.4-10.8,1.1-14.8,8
		c-3.9,6.8-3.7,14.3,0.5,16.8l0,0L217.4,214.5L217.4,214.5z"/>
</g>
</svg>
